<?xml version="1.0" encoding="UTF-8"?>
<svg version="1.1" xmlns="http://www.w3.org/2000/svg" width="266" height="119">
<path d="M0 0 C87.78 0 175.56 0 266 0 C266 39.27 266 78.54 266 119 C178.22 119 90.44 119 0 119 C0 79.73 0 40.46 0 0 Z " fill="#FCFCFC" transform="translate(0,0)"/>
<path d="M0 0 C87.78 0 175.56 0 266 0 C266 39.27 266 78.54 266 119 C178.22 119 90.44 119 0 119 C0 79.73 0 40.46 0 0 Z M11.55670071 19.66169643 C9.16131905 23.98707146 8.49895306 27.36783762 8.49829102 32.40063477 C8.49288803 33.10402985 8.48748505 33.80742493 8.48191833 34.53213501 C8.46950563 36.83566582 8.48586875 39.13792842 8.50390625 41.44140625 C8.5037511 43.05370651 8.50225954 44.66600715 8.49949646 46.27830505 C8.49811588 49.64818928 8.51061424 53.01764613 8.53344727 56.38745117 C8.56185403 60.69713354 8.55908394 65.00610766 8.54635715 69.31584263 C8.53938821 72.64196272 8.54720269 75.96792036 8.55961418 79.2940197 C8.56411528 80.88276483 8.56447725 82.47152748 8.56054878 84.06027412 C8.55762392 86.28346391 8.57420191 88.50569186 8.59594727 90.72875977 C8.60135025 91.99115982 8.60675323 93.25355988 8.61231995 94.55421448 C9.33238164 100.95428103 12.29794807 104.7802098 17 109 C20.33503582 110.66751791 24.08149216 110.14411022 27.74873352 110.14044189 C29.12420397 110.14489858 29.12420397 110.14489858 30.52746171 110.1494453 C33.61898421 110.15815941 36.71046812 110.15964283 39.80200195 110.16113281 C42.0109058 110.16575907 44.21980884 110.17078346 46.42871094 110.17617798 C52.44319892 110.18932251 58.45767573 110.19575093 64.47217584 110.20018864 C68.2267899 110.20311604 71.98140089 110.20722021 75.73601341 110.21169281 C86.12876512 110.22380466 96.52151465 110.23418572 106.91427326 110.2375679 C107.57965774 110.23778747 108.24504222 110.23800703 108.93058987 110.23823325 C109.93107457 110.23856067 109.93107457 110.23856067 110.95177108 110.2388947 C112.30337799 110.23933817 113.65498489 110.23978473 115.0065918 110.24023438 C115.67703757 110.2404558 116.34748333 110.24067723 117.03824564 110.24090537 C127.90176937 110.24485334 138.76522602 110.26230667 149.62872384 110.2855939 C160.77864258 110.30930241 171.92853684 110.3215115 183.07848328 110.32293582 C189.3401607 110.32398565 195.60174354 110.32993118 201.8633976 110.34775543 C207.75255672 110.36419264 213.64154974 110.36641278 219.53072357 110.35761642 C221.69429404 110.35684372 223.85787327 110.36121938 226.02142143 110.37107468 C228.97125249 110.38372531 231.92048917 110.37795479 234.87031555 110.36749268 C236.15961793 110.37957728 236.15961793 110.37957728 237.47496682 110.39190602 C243.42972183 110.3423898 246.61409827 109.04505863 251.1875 105.125 C254.95822529 100.70414966 255.2563602 96.50766307 255.29052734 90.82641602 C255.29724457 90.12331299 255.30396179 89.42020996 255.31088257 88.69580078 C255.32981195 86.3817632 255.33378391 84.06801634 255.3359375 81.75390625 C255.34236809 80.13874697 255.34909665 78.52358886 255.35610962 76.90843201 C255.36806908 73.52673644 255.37179173 70.14514295 255.37060547 66.76342773 C255.37040216 62.43794186 255.39772249 58.11311208 255.43214989 53.78778172 C255.45442427 50.45310988 255.45844288 47.11859595 255.45738602 43.78385735 C255.45974046 42.18950066 255.46855525 40.59513952 255.48405075 39.0008564 C255.50372629 36.76776691 255.49786848 34.53609252 255.48583984 32.30297852 C255.48868988 31.03454605 255.49153992 29.76611359 255.49447632 28.45924377 C254.65571574 22.59146567 251.36540983 18.73901923 246.82134378 15.05457705 C243.3347763 13.0358181 239.67253906 13.31753605 235.73901367 13.37181091 C234.81523768 13.36471653 233.8914617 13.35762214 232.9396925 13.35031277 C229.84869287 13.33273077 226.75895032 13.35083904 223.66796875 13.36889648 C221.45024035 13.36375777 219.23251603 13.35647685 217.01480103 13.34721375 C210.99413074 13.32868577 204.97390281 13.34164752 198.95325089 13.36130404 C192.65396859 13.37768009 186.35471454 13.36887909 180.05541992 13.36378479 C169.47665687 13.35926269 158.8980504 13.37503662 148.31933594 13.40307617 C137.43970394 13.43191286 126.5603238 13.43899676 115.68066406 13.42358398 C102.56332385 13.40502657 89.44611272 13.40676462 76.32876587 13.42579842 C71.32090138 13.43267284 66.31313051 13.43163239 61.30526733 13.42425346 C55.40857392 13.41659512 49.51224353 13.42870255 43.61561203 13.45610237 C41.45086113 13.46299193 39.28607636 13.46307809 37.12132645 13.45588684 C34.16747393 13.44720457 31.21474487 13.46312809 28.26098633 13.4853363 C27.40320178 13.47709554 26.54541723 13.46885477 25.66163921 13.46036428 C19.6219773 13.54424215 15.67188723 14.92380818 11.55670071 19.66169643 Z " fill="#FAFAFA" transform="translate(0,0)"/>
<path d="M0 0 C31.02 0 62.04 0 94 0 C94 21.78 94 43.56 94 66 C62.98 66 31.96 66 0 66 C0 44.22 0 22.44 0 0 Z " fill="#070707" transform="translate(31,32)"/>
<path d="M0 0 C0.92236486 -0.00835666 1.84472971 -0.01671332 2.79504502 -0.02532321 C5.88117037 -0.04827534 8.96656912 -0.04268953 12.05276489 -0.0370636 C14.26725055 -0.04739658 16.48172902 -0.05938548 18.69619751 -0.07290649 C24.70864064 -0.1039683 30.72084416 -0.10923036 36.73335791 -0.10797477 C41.75329066 -0.10880495 46.77317133 -0.12104566 51.79308808 -0.13292438 C64.31367587 -0.16187067 76.83414674 -0.16482009 89.35474981 -0.15686695 C100.21938278 -0.15088591 111.08356439 -0.18127859 121.94808482 -0.22848966 C133.11285146 -0.27662572 144.27745312 -0.29800417 155.44233811 -0.29317886 C161.70699157 -0.29085578 167.9711789 -0.29919498 174.23574448 -0.3342495 C180.12769228 -0.36618678 186.01868415 -0.36440949 191.91064453 -0.33680534 C194.07135061 -0.33234735 196.23211958 -0.33981043 198.39273453 -0.36014938 C201.34659782 -0.38606901 204.29720301 -0.36867255 207.25097656 -0.34057617 C208.10293543 -0.35823758 208.95489429 -0.37589899 209.83267009 -0.3940956 C215.79514144 -0.27175393 218.82278826 1.57819561 223.14119637 5.63678712 C226.73016201 9.84955861 227.00722877 13.10310477 227.02713013 18.58818054 C227.03224106 19.29113754 227.03735199 19.99409454 227.0426178 20.71835327 C227.05649626 23.03784241 227.05555818 25.35703377 227.05325317 27.67655945 C227.05714149 29.29314789 227.06147644 30.90973531 227.0662384 32.52632141 C227.07369716 35.91399955 227.07341216 39.30157347 227.06814575 42.68925476 C227.06235602 47.02251215 227.07927154 51.35534142 227.10249043 55.68852806 C227.11725089 59.02748595 227.11809625 62.36634134 227.1149807 65.70532608 C227.1154929 67.30245943 227.12071157 68.89959867 227.13079262 70.49670029 C227.14318293 72.73450443 227.13635024 74.97148254 227.12478638 77.20927429 C227.1254158 78.48072296 227.12604523 79.75217163 227.12669373 81.06214905 C226.43861108 87.43504286 223.49627805 91.37729159 218.75247192 95.52812195 C214.79388537 96.8476508 211.01044336 96.67270595 206.88348389 96.66856384 C205.5067318 96.67302053 205.5067318 96.67302053 204.10216653 96.67756724 C201.01375008 96.68626794 197.92537233 96.68776364 194.83694458 96.68925476 C192.62789324 96.69388191 190.4188427 96.69890643 188.20979309 96.70429993 C182.19949642 96.71743467 176.18921093 96.72387083 170.17890215 96.72831059 C166.42646032 96.7312392 162.67402156 96.73534358 158.92158127 96.73981476 C148.53307818 96.75192418 138.14457726 96.76230638 127.75606728 96.76568985 C127.09121792 96.76590942 126.42636856 96.76612898 125.74137225 96.7663552 C125.07493055 96.76657348 124.40848885 96.76679176 123.72185194 96.76701665 C122.37138152 96.76746012 121.0209111 96.76790668 119.67044067 96.76835632 C119.00056041 96.76857775 118.33068014 96.76879918 117.64050047 96.76902732 C106.78350684 96.77297623 95.92658029 96.79043347 85.06961258 96.81371585 C73.92418223 96.83742404 62.77877636 96.84963339 51.63331831 96.85105777 C45.37500923 96.85210751 39.11679477 96.85805144 32.85850906 96.87587738 C26.97344054 96.89231402 21.08853822 96.894535 15.20345497 96.88573837 C13.04149621 96.88496567 10.87952867 96.88934127 8.71759224 96.89919662 C5.77000408 96.91184723 2.82301074 96.90607679 -0.12457275 96.89561462 C-0.98342555 96.90367103 -1.84227835 96.91172743 -2.727157 96.92002797 C-7.40181583 96.881126 -10.43370044 96.53445313 -14.24752808 93.52812195 C-18.10694884 88.43141629 -19.37591569 83.98904711 -19.42453003 77.71098328 C-19.43110123 77.00992462 -19.43767242 76.30886597 -19.44444275 75.58656311 C-19.46418874 73.26109207 -19.47584329 70.93568576 -19.48580933 68.6101532 C-19.48988485 67.81534735 -19.49396038 67.0205415 -19.49815941 66.20165062 C-19.51902914 61.99203628 -19.53332497 57.78245459 -19.54269409 53.57279968 C-19.55373969 49.23279126 -19.58811514 44.89329822 -19.62786579 40.55347157 C-19.65406905 37.21019567 -19.66238936 33.86704164 -19.66597557 30.5236721 C-19.6708347 28.92454753 -19.6824295 27.32542816 -19.70101357 25.72640419 C-19.7254775 23.48127164 -19.72442721 21.23745952 -19.71749878 18.99223328 C-19.72336502 17.71697281 -19.72923126 16.44171234 -19.73527527 15.12780762 C-18.96374111 9.43370935 -17.05551089 6.05707622 -12.6788969 2.35591125 C-8.25800929 0.00103438 -4.92807725 -0.03956943 0 0 Z M-15.60536194 10.4108429 C-16.52661314 13.44829029 -16.51034437 16.23211988 -16.52218628 19.40458679 C-16.52729721 20.08803665 -16.53240814 20.77148651 -16.53767395 21.47564697 C-16.55154953 23.73020742 -16.55061455 25.98446142 -16.54830933 28.23905945 C-16.55219782 29.81080742 -16.55653281 31.38255435 -16.56129456 32.95429993 C-16.5687527 36.24782213 -16.56846877 39.54123713 -16.5632019 42.83476257 C-16.55741244 47.04695644 -16.57432729 51.25870984 -16.59754658 55.47083092 C-16.6123093 58.71714324 -16.6131521 61.96335015 -16.61003685 65.20969009 C-16.61054894 66.7621663 -16.61576561 68.31464858 -16.62584877 69.86709213 C-16.63824346 72.04263803 -16.63140391 74.21733482 -16.61984253 76.39286804 C-16.62047195 77.62878693 -16.62110138 78.86470581 -16.62174988 80.13807678 C-16.08326083 85.01620572 -14.58446891 88.12803208 -11.20029926 91.67204952 C-7.13002312 94.2305706 -3.92970841 94.0826338 0.78604126 94.02932739 C1.69741773 94.03486179 2.6087942 94.04039619 3.54778814 94.04609829 C6.60262132 94.05971494 9.65663893 94.04472986 12.7114563 94.02983093 C14.90110115 94.03361373 17.09074361 94.03911344 19.28038025 94.04620361 C25.2286788 94.06018049 31.17668882 94.04897259 37.12497139 94.0324924 C43.34598144 94.0186558 49.56697451 94.02510039 55.78799438 94.02862549 C66.23567144 94.0313287 76.68324099 94.0179299 87.13088989 93.99467468 C97.8786546 93.97075416 108.62626741 93.96367052 119.37405396 93.97416687 C132.32813155 93.98679524 145.28211647 93.98428377 158.2361908 93.96850777 C163.18346294 93.96274487 168.13068425 93.96283305 173.07795715 93.96757317 C178.90234783 93.97234075 184.72652792 93.96225009 190.55087852 93.94061852 C192.69025144 93.93504754 194.82964457 93.93458818 196.96901894 93.93957138 C199.88588158 93.94551418 202.8020982 93.93303808 205.71890259 93.915802 C206.56860925 93.92181205 207.41831592 93.92782209 208.29377127 93.93401426 C212.95079969 93.8838591 215.94798719 93.50649332 219.75247192 90.52812195 C223.59062816 86.14165768 223.88403912 82.47232293 223.92947388 76.7651825 C223.93933067 75.74022675 223.93933067 75.74022675 223.9493866 74.69456482 C223.96908687 72.43465561 223.98077475 70.17481275 223.99075317 67.9148407 C223.9948287 67.14176889 223.99890423 66.36869709 224.00310326 65.57219887 C224.02394993 61.48044223 224.03825776 57.388719 224.04763794 53.29692078 C224.0587003 49.07678424 224.09310168 44.85717527 224.13280964 40.63722515 C224.15898824 37.38663775 224.16733084 34.13617586 224.17091942 30.88549232 C224.1757821 29.33019764 224.18738711 27.77490844 224.20595741 26.21971703 C224.23037722 24.03913739 224.22937963 21.85992028 224.22244263 19.679245 C224.22830887 18.44030991 224.23417511 17.20137482 224.24021912 15.92489624 C223.53363492 11.00409489 221.56087241 7.96076483 217.67395401 4.88148785 C213.63052765 3.00838537 210.13151139 3.10606433 205.72563171 3.13371277 C204.81496081 3.12762167 203.9042899 3.12153056 202.96602291 3.11525488 C199.91367417 3.09860216 196.86174156 3.10340397 193.80935669 3.10820007 C191.62133347 3.10086111 189.43331414 3.09227539 187.24530029 3.08253479 C181.301134 3.0602929 175.35710622 3.05738943 169.41290402 3.0592823 C164.45249094 3.05940187 159.49210735 3.05084339 154.53170246 3.04250479 C142.16157951 3.02216081 129.79152535 3.02112418 117.42139249 3.02831191 C106.68153197 3.03388795 95.94190995 3.01305849 85.20210517 2.97995144 C74.17071418 2.9462098 63.13944305 2.93152121 52.10800022 2.93566847 C45.91614557 2.93773833 39.72452848 2.93221974 33.53271675 2.90777588 C27.71070377 2.88555156 21.88918804 2.88735102 16.067173 2.9077034 C13.92982156 2.91112097 11.79243691 2.90599241 9.65513039 2.89171982 C6.73826912 2.87358468 3.82310509 2.88623407 0.90629578 2.90666199 C0.05950195 2.89414414 -0.78729187 2.88162629 -1.65974611 2.86872911 C-8.24010177 2.96760564 -11.67296041 4.95832405 -15.60536194 10.4108429 Z " fill="#353535" transform="translate(28.247528076171875,13.471878051757813)"/>
<path d="M0 0 C4.5478125 -0.12375 4.5478125 -0.12375 9.1875 -0.25 C10.60712036 -0.30462402 10.60712036 -0.30462402 12.05541992 -0.36035156 C16.16263112 -0.41441102 18.46153605 -0.31393336 22.08203125 1.796875 C24 4 24 4 24.5 7.5 C23.99603747 11.02773771 23.42668267 12.47220555 21 15 C22.32 15.66 23.64 16.32 25 17 C25.48915663 23.35903614 25.48915663 23.35903614 23.1875 26.375 C20.04874817 28.70664421 17.56798557 29.12459564 13.76953125 29.09765625 C13.04612549 29.09515869 12.32271973 29.09266113 11.57739258 29.09008789 C10.66497803 29.08098389 9.75256348 29.07187988 8.8125 29.0625 C5.904375 29.041875 2.99625 29.02125 0 29 C0 19.43 0 9.86 0 0 Z " fill="#F5F5F5" transform="translate(54,50)"/>
<path d="M0 0 C1.3771391 -0.00869008 1.3771391 -0.00869008 2.78209919 -0.01755571 C5.8835311 -0.03571018 8.98494466 -0.04651462 12.08641052 -0.05725098 C14.30015228 -0.06841946 16.51389232 -0.07993256 18.72763062 -0.09176636 C26.02094652 -0.12840933 33.31428005 -0.15355615 40.60765076 -0.1763916 C41.84726775 -0.18033747 43.08688474 -0.18428333 44.36406589 -0.18834877 C56.04989579 -0.22477519 67.73573331 -0.25638411 79.4216013 -0.27745819 C82.13018369 -0.2824276 84.83876593 -0.28747189 87.54734802 -0.29260254 C88.55717045 -0.29450855 88.55717045 -0.29450855 89.58739334 -0.29645306 C100.48464025 -0.31779726 111.3815849 -0.36677307 122.27867986 -0.42684668 C133.46585019 -0.48801061 144.65291304 -0.52209546 155.84025902 -0.5319314 C162.12180836 -0.53819502 168.40280263 -0.55637171 174.68419075 -0.60331726 C180.59651906 -0.64695487 186.50798827 -0.6574804 192.42045021 -0.64268875 C194.5892421 -0.64301769 196.75807061 -0.65531607 198.92671585 -0.68053818 C201.8917166 -0.71319837 204.85356941 -0.70249308 207.81860352 -0.68115234 C208.67397298 -0.70086011 209.52934244 -0.72056788 210.41063219 -0.74087286 C216.48195672 -0.6307722 219.48787052 1.29292259 223.84130806 5.47062635 C226.84854413 8.84430451 226.48566462 11.52588463 226.49900818 15.95617676 C226.50236679 16.65390701 226.5057254 17.35163727 226.50918579 18.07051086 C226.51870422 20.38275928 226.52063932 22.69493535 226.52171326 25.00720215 C226.52492513 26.6114149 226.52828915 28.21562735 226.53179932 29.81983948 C226.53779275 33.18495361 226.53963899 36.55004204 226.53904724 39.91516113 C226.53894559 44.23073714 226.55260026 48.54614873 226.56981945 52.86168575 C226.58092851 56.1756313 226.58296679 59.48953696 226.58243752 62.80349922 C226.58361919 64.39473602 226.58805144 65.98597379 226.59576988 67.57719231 C226.60554818 69.80129444 226.6027005 72.02503781 226.59666443 74.24914551 C226.59808945 75.51552353 226.59951447 76.78190155 226.60098267 78.08665466 C226.35374451 81.1673584 226.35374451 81.1673584 224.35374451 84.1673584 C224.34827606 82.83431168 224.34827606 82.83431168 224.34269714 81.47433472 C224.30478681 73.08777886 224.24789953 64.70161068 224.16984177 56.3153286 C224.13037926 52.00410849 224.09818489 47.69309226 224.08274841 43.38171387 C224.06757354 39.21878124 224.03311385 35.05640914 223.98543549 30.89372635 C223.97063014 29.3078156 223.96270397 27.72182482 223.96186066 26.13584518 C223.95948654 23.90925512 223.93237501 21.68420859 223.89964294 19.45788574 C223.8907605 18.19213715 223.88187805 16.92638855 223.87272644 15.62228394 C223.25386177 11.50242692 222.00168489 9.35717657 219.35374451 6.1673584 C215.51588854 3.38343078 211.04561925 3.88464562 206.5096283 3.90234375 C205.60656779 3.89796248 204.70350728 3.89358121 203.7730813 3.88906717 C200.74067417 3.87672459 197.70843951 3.87855682 194.67601013 3.88024902 C192.50459536 3.87422632 190.33318294 3.86730246 188.16177368 3.85954285 C183.48277093 3.84464126 178.80381096 3.83590151 174.12478638 3.83183289 C166.73023698 3.825129 159.3357793 3.80338645 151.94126892 3.77929688 C136.24544969 3.73029339 120.54960843 3.69796313 104.85374451 3.6673584 C87.91036728 3.63432119 70.96702244 3.59842503 54.02370024 3.54322767 C46.6688027 3.51984033 39.31396887 3.50612842 31.95903778 3.49973297 C27.38857265 3.49380665 22.81815938 3.47972108 18.24772072 3.46338844 C16.12405379 3.45749817 14.00037422 3.45504317 11.87669945 3.45622826 C8.98364221 3.4573827 6.0908782 3.44640875 3.19786072 3.43237305 C2.35234099 3.43567202 1.50682126 3.43897099 0.63567972 3.44236994 C-6.38131128 3.38596728 -6.38131128 3.38596728 -9.64625549 1.1673584 C-7.54813739 -0.9307597 -2.89694474 0.00619311 0 0 Z " fill="#444444" transform="translate(27.646255493164063,13.8326416015625)"/>
<path d="M0 0 C2.97539594 1.65429676 5.08843157 3.15180491 6.6875 6.25 C6.6875 7.24 6.6875 8.23 6.6875 9.25 C5.2504191 9.30422947 3.81274538 9.34289723 2.375 9.375 C1.57449219 9.39820313 0.77398437 9.42140625 -0.05078125 9.4453125 C-2.3125 9.25 -2.3125 9.25 -5.3125 7.25 C-8.37219475 6.9312818 -10.43189495 6.73378325 -13.125 8.3125 C-14.86979603 11.15927247 -15.00292148 13.96846765 -15.3125 17.25 C-14.6525 17.25 -13.9925 17.25 -13.3125 17.25 C-12.6525 18.24 -11.9925 19.23 -11.3125 20.25 C-7.25804358 20.68132515 -5.76279042 20.55019361 -2.3125 18.25 C-4.6225 17.92 -6.9325 17.59 -9.3125 17.25 C-9.3125 15.27 -9.3125 13.29 -9.3125 11.25 C-3.7025 11.25 1.9075 11.25 7.6875 11.25 C7.6875 17.38648027 7.64896587 20.7544039 3.6875 25.25 C-1.3614862 29.04790998 -6.12292749 30.03597746 -12.3125 29.25 C-17.17741388 27.57551844 -20.36190217 24.85066202 -22.65625 20.2421875 C-24.2937094 15.2713286 -23.86868643 10.80146742 -22.125 5.9375 C-16.79835947 -1.96062216 -8.51830304 -4.0076887 0 0 Z " fill="#EFEFEF" transform="translate(108.3125,50.75)"/>
<path d="M0 0 C1.37491973 -0.00384491 1.37491973 -0.00384491 2.77761561 -0.0077675 C5.83781039 -0.01269454 8.89750781 0.00376987 11.95765686 0.02018738 C14.15570565 0.02103388 16.35375529 0.02055805 18.55180359 0.01885986 C24.51201724 0.0179994 30.47204963 0.03563361 36.43222117 0.05658174 C42.66355517 0.07533992 48.89489335 0.07709831 55.12625122 0.08065796 C65.58294246 0.08892179 76.0395717 0.10765837 86.49623108 0.13444519 C97.26445688 0.16200139 108.03266462 0.18322732 118.80091858 0.19596863 C119.46517953 0.1967568 120.12944048 0.19754497 120.81383055 0.19835702 C124.14638389 0.20227226 127.47893735 0.20605659 130.81149089 0.20979273 C158.43846551 0.24114746 186.06536608 0.29391293 213.692276 0.36076355 C213.692276 0.69076355 213.692276 1.02076355 213.692276 1.36076355 C212.55883192 1.36223011 211.42538784 1.36369667 210.25759697 1.36520767 C182.69121824 1.40178629 155.12496117 1.4612144 127.5586834 1.54466629 C114.22787557 1.5844927 100.89715829 1.61686689 87.56629944 1.63175964 C75.94849505 1.64475747 64.33082104 1.67167439 52.71309006 1.71537662 C46.56033993 1.73803335 40.40775085 1.7536717 34.25495529 1.7526474 C28.46503429 1.75190329 22.67546987 1.76975426 16.8856411 1.80193138 C14.75960223 1.8104575 12.6335235 1.81216201 10.5074749 1.80656624 C7.6058372 1.79994578 4.70534054 1.81780051 1.80381775 1.84178162 C0.54018396 1.83014099 0.54018396 1.83014099 -0.74897778 1.8182652 C-6.06571818 1.89611845 -9.07756936 2.85332012 -13.307724 6.36076355 C-16.51803371 10.34885945 -16.69656799 13.58889728 -16.74009705 18.62956238 C-16.7502887 19.34230316 -16.76048035 20.05504395 -16.77098083 20.78938293 C-16.80104187 23.13226757 -16.81036588 25.47474288 -16.81944275 27.8177948 C-16.83629461 29.44734041 -16.85444554 31.07687306 -16.87384033 32.70639038 C-16.92129163 36.98559011 -16.95113236 41.26473729 -16.97727966 45.54411316 C-17.00710985 49.9147428 -17.05363172 54.28519148 -17.09873962 58.65568542 C-17.18471731 67.22395579 -17.25208704 75.79224271 -17.307724 84.36076355 C-18.297724 84.85576355 -18.297724 84.85576355 -19.307724 85.36076355 C-20.77361032 82.42899091 -20.45937638 79.81727205 -20.48472595 76.54362488 C-20.49129715 75.84256622 -20.49786835 75.14150757 -20.50463867 74.41920471 C-20.52438466 72.09373367 -20.53603922 69.76832736 -20.54600525 67.4427948 C-20.55008078 66.64798895 -20.5541563 65.8531831 -20.55835533 65.03429222 C-20.57922506 60.82467788 -20.59352089 56.61509619 -20.60289001 52.40544128 C-20.61393561 48.06543286 -20.64831106 43.72593982 -20.68806171 39.38611317 C-20.71426497 36.04283727 -20.72258528 32.69968324 -20.72617149 29.35631371 C-20.73103062 27.75718913 -20.74262542 26.15806976 -20.76120949 24.55904579 C-20.78567342 22.31391324 -20.78462313 20.07010112 -20.7776947 17.82487488 C-20.78356094 16.54961441 -20.78942719 15.27435394 -20.79547119 13.96044922 C-20.23250055 9.8055973 -19.30029974 6.3916418 -16.307724 3.36076355 C-10.77884669 0.33620765 -6.22458664 -0.06419715 0 0 Z " fill="#141414" transform="translate(29.307723999023438,14.639236450195313)"/>
<path d="M0 0 C15 0 15 0 21 4 C22.77320558 7.54641117 22.75505521 11.14728237 22 15 C20.1871587 17.96920519 18.1691225 19.58849663 15 21 C11.27256282 21.46468051 7.73254649 21.36448013 4 21 C4 24.3 4 27.6 4 31 C2.68 31 1.36 31 0 31 C0 20.77 0 10.54 0 0 Z " fill="#1C1C1C" transform="translate(205,49)"/>
<path d="M0 0 C1.32 0 2.64 0 4 0 C5.71594407 3.92970967 7.42473046 7.86242953 9.12695312 11.7980957 C9.70702526 13.13651159 10.2890445 14.47408536 10.87304688 15.81079102 C11.71217009 17.73235463 12.5442432 19.65683844 13.375 21.58203125 C14.12910156 23.31803589 14.12910156 23.31803589 14.8984375 25.08911133 C16 28 16 28 16 31 C14.68 30.67 13.36 30.34 12 30 C12 29.01 12 28.02 12 27 C11.34 27 10.68 27 10 27 C10 26.01 10 25.02 10 24 C4.72 24.33 -0.56 24.66 -6 25 C-6.66 26.98 -7.32 28.96 -8 31 C-9.65 31 -11.3 31 -13 31 C-10.96159261 24.56200575 -8.57860627 18.33821474 -5.9375 12.125 C-5.58623047 11.28453125 -5.23496094 10.4440625 -4.87304688 9.578125 C-3.42320722 6.14674647 -2.07533936 3.11300904 0 0 Z " fill="#1B1B1B" transform="translate(183,49)"/>
<path d="M0 0 C6.93 0 13.86 0 21 0 C19.8752778 6.74833319 19.8752778 6.74833319 17.85546875 9.4375 C17.42556641 10.02273437 16.99566406 10.60796875 16.55273438 11.2109375 C16.10220703 11.80132812 15.65167969 12.39171875 15.1875 13 C14.3051288 14.18686053 13.42360939 15.37435483 12.54296875 16.5625 C12.15133545 17.07941406 11.75970215 17.59632812 11.35620117 18.12890625 C9.49373554 20.69847179 7.76037105 23.35944342 6 26 C11.28 26.33 16.56 26.66 22 27 C22 28.32 22 29.64 22 31 C14.74 31 7.48 31 0 31 C1.12465463 24.25207224 1.12465463 24.25207224 3.3984375 21.08984375 C3.87796875 20.40986328 4.3575 19.72988281 4.8515625 19.02929688 C5.35429687 18.33900391 5.85703125 17.64871094 6.375 16.9375 C7.36322502 15.55166882 8.35023506 14.16497031 9.3359375 12.77734375 C9.77470215 12.17140381 10.2134668 11.56546387 10.66552734 10.94116211 C12.21083716 8.69331023 13.5965653 6.33905783 15 4 C10.05 4 5.1 4 0 4 C0 2.68 0 1.36 0 0 Z " fill="#151515" transform="translate(145,49)"/>
<path d="M0 0 C1.588125 -0.020625 3.17625 -0.04125 4.8125 -0.0625 C5.70582031 -0.07410156 6.59914062 -0.08570313 7.51953125 -0.09765625 C10 0 10 0 13 1 C14.54163175 4.0832635 14.29747535 6.60878099 14 10 C11.82369252 12.20143805 10.51257644 12.94175268 7.421875 13.29296875 C6.54015625 13.25816406 5.6584375 13.22335938 4.75 13.1875 C3.1825 13.125625 1.615 13.06375 0 13 C0 8.71 0 4.42 0 0 Z " fill="#F4F4F4" transform="translate(209,53)"/>
<path d="M0 0 C0.99 0.33 1.98 0.66 3 1 C3.04631059 10.07503724 3.08186267 19.1500339 3.10362434 28.22516346 C3.11406808 32.43896975 3.12823799 36.65269527 3.15087891 40.86645508 C3.17258633 44.93185407 3.18456419 48.99717532 3.18975449 53.06262779 C3.19345403 54.61479606 3.20067819 56.16696 3.21146011 57.71909523 C3.22594726 59.89070506 3.22797913 62.06199231 3.22705078 64.23364258 C3.231492 65.47052322 3.23593323 66.70740387 3.24050903 67.98176575 C3 71 3 71 1 74 C0.67 49.58 0.34 25.16 0 0 Z " fill="#030303" transform="translate(251,24)"/>
<path d="M0 0 C0.99 0.66 1.98 1.32 3 2 C4.71444889 2.43738696 6.44667784 2.80848688 8.1875 3.125 C9.08855469 3.29257812 9.98960938 3.46015625 10.91796875 3.6328125 C11.60503906 3.75398438 12.29210937 3.87515625 13 4 C13 4.33 13 4.66 13 5 C7.39 5 1.78 5 -4 5 C-4 6.98 -4 8.96 -4 11 C-1.36 11 1.28 11 4 11 C2.375 13 2.375 13 0 15 C-3.25 15.25 -3.25 15.25 -6 15 C-6.66 13.68 -7.32 12.36 -8 11 C-8.66 11 -9.32 11 -10 11 C-10.48275862 4.72413793 -10.48275862 4.72413793 -8.375 1.5625 C-5.33458305 -0.43777431 -3.5772533 -0.45667063 0 0 Z " fill="#141414" transform="translate(103,57)"/>
<path d="M0 0 C6.93 0 13.86 0 21 0 C19.83269353 7.00383885 18.0308961 8.62443279 12.6875 12.8125 C12.130625 13.204375 11.57375 13.59625 11 14 C10.34 13.67 9.68 13.34 9 13 C11.97 8.545 11.97 8.545 15 4 C10.05 4 5.1 4 0 4 C0 2.68 0 1.36 0 0 Z " fill="#1B1B1B" transform="translate(145,49)"/>
<path d="M0 0 C0.66 0 1.32 0 2 0 C2.67260351 1.76858691 3.33788395 3.53996016 4 5.3125 C4.37125 6.29863281 4.7425 7.28476562 5.125 8.30078125 C6 11 6 11 6 14 C2.7 14 -0.6 14 -4 14 C-3.46148032 8.72250715 -2.22656164 4.74354436 0 0 Z " fill="#E9E9E9" transform="translate(184,55)"/>
<path d="M0 0 C0.66 0.99 1.32 1.98 2 3 C4.66142613 6.76270591 6.55663057 8.64230379 11 10 C10.01 11.485 10.01 11.485 9 13 C4.57249544 11.60849857 1.8476159 9.68514998 -1 6 C-0.8125 2.6875 -0.8125 2.6875 0 0 Z " fill="#1B1B1B" transform="translate(12,97)"/>
<path d="M0 0 C0.33 0 0.66 0 1 0 C0.79397338 5.97477202 -0.07543801 8.85358261 -4.33203125 13.06640625 C-6 14 -6 14 -8.19921875 13.65234375 C-8.79347656 13.43707031 -9.38773438 13.22179687 -10 13 C-10 12.34 -10 11.68 -10 11 C-8.8553125 10.38125 -8.8553125 10.38125 -7.6875 9.75 C-4.38622138 7.6003302 -3.58400338 5.54515042 -2 2 C-1.34 1.34 -0.68 0.68 0 0 Z " fill="#191919" transform="translate(253,95)"/>
<path d="M0 0 C2.31 0 4.62 0 7 0 C7.38218767 1.65614657 7.71395102 3.32457024 8 5 C7 6 7 6 3.4375 6.0625 C2.303125 6.041875 1.16875 6.02125 0 6 C0 4.02 0 2.04 0 0 Z " fill="#2F2F2F" transform="translate(62,67)"/>
<path d="M0 0 C5.29158974 1.40071493 7.77478044 4.85487245 11 9 C10.67 9.66 10.34 10.32 10 11 C6.27244802 9.75748267 4.72599649 7.79248421 2 5 C0.68824014 3.97186389 -0.6369893 2.95915568 -2 2 C-1.34 2 -0.68 2 0 2 C0 1.34 0 0.68 0 0 Z " fill="#191919" transform="translate(243,14)"/>
<path d="M0 0 C2.64 0 5.28 0 8 0 C7.67 1.65 7.34 3.3 7 5 C4.69 5 2.38 5 0 5 C0 3.35 0 1.7 0 0 Z " fill="#2E2E2E" transform="translate(62,56)"/>
<path d="M0 0 C0.66 0.33 1.32 0.66 2 1 C0.70989008 3.87793751 -0.57361806 5.96183917 -3 8 C-3.99 8.33 -4.98 8.66 -6 9 C-4.68775452 5.06326356 -3.08089673 2.77280706 0 0 Z " fill="#1D1D1D" transform="translate(16,16)"/>
<path d="M0 0 C1.32 0.66 2.64 1.32 4 2 C3.34 3.98 2.68 5.96 2 8 C0.68 7.67 -0.64 7.34 -2 7 C-1.34 4.69 -0.68 2.38 0 0 Z " fill="#282828" transform="translate(179,57)"/>
<path d="M0 0 C0 1.65 0 3.3 0 5 C-1.65 5 -3.3 5 -5 5 C-4.6875 3.0625 -4.6875 3.0625 -4 1 C-1 0 -1 0 0 0 Z " fill="#2C2C2C" transform="translate(175,75)"/>
<path d="M0 0 C2.475 0.99 2.475 0.99 5 2 C4.01 2.99 3.02 3.98 2 5 C0.68 4.01 -0.64 3.02 -2 2 C-1.34 2 -0.68 2 0 2 C0 1.34 0 0.68 0 0 Z " fill="#2E2E2E" transform="translate(243,14)"/>
</svg>
